<svg width="20" height="20" viewBox="0 0 20 20" fill="none" xmlns="http://www.w3.org/2000/svg">
<path d="M17.59 15.3727C17.5659 15.2605 17.5896 15.1436 17.6529 15.0479C18.6097 13.6003 19.1668 11.8652 19.1668 9.99992C19.1668 4.93731 15.0627 0.833252 10.0002 0.833252C4.93755 0.833252 0.833496 4.93731 0.833496 9.99992C0.833496 15.0625 4.93755 19.1666 10.0002 19.1666C11.5558 19.1666 13.021 18.7791 14.3043 18.0952C14.5166 17.9822 14.7655 17.9541 14.9937 18.0302L17.7686 18.9552C18.049 19.0486 18.3247 18.8018 18.2628 18.5128L17.59 15.3727Z" fill="white" stroke="#0A0B1E"/>
<path d="M5.4165 8.33325H14.5832H5.4165ZM5.4165 11.6666H9.93042H5.4165Z" fill="black"/>
<path d="M5.4165 8.33325H14.5832M5.4165 11.6666H9.93042" stroke="#0A0B1E" stroke-linecap="round"/>
</svg>
