<svg width="20" height="21" viewBox="0 0 20 21" fill="none" xmlns="http://www.w3.org/2000/svg">
<path d="M10.151 19.6666C13.526 19.6666 16.262 16.9306 16.262 13.5555V11.6458H3.96346L3.96338 13.7025C3.96338 17.3137 6.77589 19.6666 10.151 19.6666Z" fill="white" stroke="#0A0B1E"/>
<path d="M4.04816 9.51319C4.21924 8.79644 4.73399 8.16813 5.47039 8.14072C5.50212 8.13953 5.53458 8.13892 5.56776 8.13892C6.52101 8.13892 7.09554 9.08436 7.09554 10.0376V10.8235C7.09554 11.7768 6.52101 12.7223 5.56776 12.7223C4.54295 12.7223 3.8999 11.7828 3.8999 10.7579C3.8999 10.287 3.96445 9.86386 4.04816 9.51319Z" fill="white" stroke="#0A0B1E"/>
<path d="M7.0957 9.28233C7.0957 8.32669 7.66785 7.375 8.62349 7.375C9.57908 7.375 10.1512 8.32668 10.1512 9.28233V10.8149C10.1512 11.7705 9.57908 12.7222 8.62349 12.7222C7.66785 12.7222 7.0957 11.7705 7.0957 10.8149V9.28233Z" fill="white" stroke="#0A0B1E"/>
<path d="M10.1514 8.52514C10.1514 7.56764 10.7217 6.61108 11.6791 6.61108C12.571 6.61108 13.081 7.49963 13.104 8.39112L13.1664 10.8087C13.1909 11.7614 12.6322 12.7222 11.6791 12.7222C10.7217 12.7222 10.1514 11.7656 10.1514 10.8081V8.52514Z" fill="white" stroke="#0A0B1E"/>
<path d="M13.072 2.25374C13.0607 1.39441 13.4932 0.5 14.3527 0.5C15.2307 0.5 15.7282 1.3688 15.82 2.24201C15.9098 3.09593 16.0199 4.35679 16.1096 6.03819C16.2454 8.5845 16.2642 10.9109 16.2646 11.9743C16.2647 12.3492 16.0517 12.6927 15.6936 12.8037C15.4199 12.8884 15.0772 12.9652 14.7346 12.9652C14.3912 12.9652 14.048 12.8882 13.774 12.8032C13.4167 12.6924 13.2037 12.3484 13.1988 11.9743L13.072 2.25374Z" fill="white" stroke="#0A0B1E"/>
<path d="M8.20051 11.9439C8.14606 12.3381 8.22514 12.6364 8.31339 12.8319C8.4 13.0236 8.59225 13.13 8.79691 13.1789L11.2929 13.7759C11.7395 13.8826 12.1291 14.1543 12.3837 14.5363C12.5922 14.8489 13.0042 14.9514 13.3349 14.7731L15.8501 13.4165V13.0165L13.9548 11.71C13.4623 11.3704 12.9003 11.1449 12.3097 11.0499L9.47483 10.5933C9.05542 10.5258 8.62883 10.7053 8.45641 11.0935C8.34725 11.3395 8.24285 11.6374 8.20051 11.9439Z" fill="white"/>
<path d="M12.8848 15.1064L12.5875 14.6383C12.315 14.2095 11.8767 13.9132 11.3773 13.8204L9.85413 13.5371C9.14688 13.4055 8.49421 12.9332 8.52654 12.2146C8.52979 12.1424 8.53629 12.068 8.54688 11.9919C8.55313 11.9464 8.56071 11.9012 8.56938 11.8563C8.73721 10.9899 9.67429 10.6053 10.5485 10.726L12.7024 11.0235C13.2692 11.1019 13.8127 11.3 14.2969 11.6049L16.189 12.7963" stroke="#0A0B1E" stroke-linecap="round"/>
</svg>
