<svg width="20" height="20" viewBox="0 0 20 20" fill="none" xmlns="http://www.w3.org/2000/svg">
<path d="M9.76025 16.6667V19.1667V16.6667Z" fill="black"/>
<path d="M9.76025 16.6667V19.1667" stroke="#0A0B1E" stroke-linecap="round" stroke-linejoin="round"/>
<path d="M6.55518 19.1667H13.0577" stroke="#0A0B1E" stroke-linecap="round"/>
<path d="M5.75459 3.50954C6.139 1.6549 7.91271 0.833252 9.80679 0.833252C11.7008 0.833252 13.4745 1.65491 13.859 3.50954C14.0605 4.48238 14.2083 5.78146 14.2083 7.49992C14.2083 9.21834 14.0605 10.5174 13.859 11.4903C13.4745 13.3449 11.7008 14.1666 9.80679 14.1666C7.91271 14.1666 6.139 13.3449 5.75459 11.4903C5.55295 10.5174 5.40527 9.21834 5.40527 7.49992C5.40527 5.78146 5.55295 4.48238 5.75459 3.50954Z" fill="white" stroke="#0A0B1E"/>
<path d="M16.2703 8.75C16.2108 9.92083 16.071 10.9878 15.8852 11.9167C15.3019 14.5833 12.9686 16.25 9.80191 16.25C6.63525 16.25 4.30191 14.5833 3.71858 11.9167C3.5328 10.9878 3.39304 9.92083 3.3335 8.75" stroke="#0A0B1E" stroke-miterlimit="10" stroke-linecap="round"/>
</svg>
