<svg width="20" height="20" viewBox="0 0 20 20" fill="none" xmlns="http://www.w3.org/2000/svg">
<path d="M13.3555 2.45369L2.27325 13.536C2.01732 13.7919 1.84287 14.1179 1.77188 14.4728L1.10278 17.8182C0.9745 18.4596 1.54001 19.0251 2.18143 18.8969L5.52691 18.2278C5.88183 18.1568 6.20779 17.9824 6.46373 17.7264L17.546 6.64417C18.441 5.74921 18.441 4.29821 17.546 3.40326L16.5965 2.45368C15.7015 1.55873 14.2505 1.55873 13.3555 2.45369Z" fill="white" stroke="#0A0B1E"/>
<path d="M17.5461 3.4035L16.5965 2.45393C15.7015 1.55898 14.2505 1.55898 13.3556 2.45393L13.2079 2.6016C12.8825 2.92704 12.8825 3.45468 13.2079 3.78012L16.2198 6.79208C16.5453 7.11752 17.0729 7.11752 17.3984 6.79208L17.5461 6.64441C18.441 5.74945 18.441 4.29845 17.5461 3.4035Z" stroke="#0A0B1E"/>
</svg>
