<svg width="20" height="20" viewBox="0 0 20 20" fill="none" xmlns="http://www.w3.org/2000/svg">
<path fill-rule="evenodd" clip-rule="evenodd" d="M18.011 11.5325C18.4328 11.5325 18.7748 11.1905 18.7748 10.7687V10.0048V9.24084C18.7748 8.81901 18.4328 8.47701 18.011 8.47701H17.3395C16.9827 8.47701 16.6778 8.22842 16.5681 7.88894C16.4546 7.53755 16.3135 7.19854 16.1475 6.87443C15.9848 6.5569 16.0246 6.16555 16.2769 5.91329L16.8034 5.38678C17.1017 5.08846 17.1017 4.60479 16.8034 4.30648L15.7231 3.22618C15.4248 2.92786 14.9411 2.92786 14.6428 3.22618L14.1163 3.75268C13.8641 4.00495 13.4727 4.0448 13.1551 3.88214C12.8311 3.71609 12.4921 3.57504 12.1406 3.46149C11.8011 3.3518 11.5526 3.04691 11.5526 2.69015V1.84714C11.5526 1.42525 11.2106 1.08325 10.7887 1.08325H9.26098C8.83906 1.08325 8.49706 1.42525 8.49706 1.84714V2.69015C8.49706 3.04691 8.2485 3.3518 7.90902 3.46149C7.55763 3.57504 7.2186 3.71609 6.8945 3.88214C6.57698 4.0448 6.18563 4.00495 5.93336 3.75268L5.39541 3.21473C5.09709 2.91641 4.61342 2.91641 4.31511 3.21474L3.23481 4.29504C2.93649 4.59335 2.93649 5.07702 3.23481 5.37534L3.77276 5.91329C4.02502 6.16555 4.06487 6.5569 3.90221 6.87443C3.73617 7.19854 3.59511 7.53755 3.48156 7.88894C3.37187 8.22842 3.06698 8.47701 2.71022 8.47701H1.96506C1.54318 8.47701 1.20117 8.81901 1.20117 9.24084V10.7687C1.20117 11.1905 1.54318 11.5325 1.96506 11.5325H2.71022C3.06698 11.5325 3.37187 11.7811 3.48156 12.1206C3.59511 12.472 3.73617 12.811 3.90221 13.1351C4.06487 13.4526 4.02502 13.844 3.77276 14.0963L3.11038 14.7586C2.81206 15.0569 2.81206 15.5406 3.11038 15.8389L4.19068 16.9193C4.48901 17.2175 4.97267 17.2175 5.27099 16.9193L5.93336 16.2568C6.18563 16.0046 6.57698 15.9648 6.8945 16.1274C7.2186 16.2934 7.55763 16.4345 7.90902 16.548C8.2485 16.6578 8.49706 16.9626 8.49706 17.3193V18.1382C8.49706 18.5601 8.83906 18.9021 9.26098 18.9021H10.7887C11.2106 18.9021 11.5526 18.5601 11.5526 18.1382V17.3193C11.5526 16.9626 11.8011 16.6578 12.1406 16.548C12.4921 16.4345 12.8311 16.2934 13.1551 16.1274C13.4727 15.9648 13.8641 16.0046 14.1163 16.2568L14.5916 16.7321C14.8899 17.0304 15.3736 17.0304 15.6719 16.7321L16.7521 15.6518C17.0505 15.3535 17.0505 14.8698 16.7521 14.5715L16.2769 14.0963C16.0246 13.844 15.9848 13.4526 16.1475 13.1351C16.3135 12.811 16.4546 12.472 16.5681 12.1206C16.6778 11.7811 16.9827 11.5325 17.3395 11.5325H18.011ZM6.96928 10.0048C6.96928 11.6923 8.33731 13.0603 10.0248 13.0603C11.7124 13.0603 13.0804 11.6923 13.0804 10.0048C13.0804 8.31723 11.7124 6.94921 10.0248 6.94921C8.33731 6.94921 6.96928 8.31723 6.96928 10.0048Z" stroke="#0A0B1E"/>
</svg>
