<svg width="20" height="20" viewBox="0 0 20 20" fill="none" xmlns="http://www.w3.org/2000/svg">
<path d="M2.94888 14.8818C2.8636 14.8731 2.7822 14.8644 2.70465 14.856C1.98177 14.7773 1.39226 14.2785 1.24834 13.5657C1.05396 12.603 0.833496 11.0298 0.833496 8.84617C0.833496 7.42291 0.927146 6.259 1.04619 5.35443C1.24152 3.87017 2.4519 2.84038 3.9441 2.71982C5.34815 2.60638 7.36684 2.5 10.0002 2.5C12.6335 2.5 14.6522 2.60638 16.0562 2.71982C17.5484 2.84038 18.7588 3.87017 18.9542 5.35443C19.0732 6.259 19.1668 7.42291 19.1668 8.84617C19.1668 11.0298 18.9463 12.603 18.752 13.5657C18.6081 14.2785 18.0186 14.7773 17.2957 14.856C17.2182 14.8644 17.1367 14.8731 17.0514 14.8818" stroke="#0A0B1E" stroke-linecap="round" stroke-linejoin="round"/>
<path d="M10.0001 17.3076C12.1277 17.3076 13.6847 17.1935 14.7858 17.057C15.8118 16.9299 16.0506 15.8019 15.2434 15.1561L10.8429 11.6357C10.3501 11.2415 9.64997 11.2415 9.15722 11.6357L4.75672 15.1561C3.94945 15.8019 4.18828 16.9299 5.21423 17.057C6.31536 17.1935 7.87236 17.3076 10.0001 17.3076Z" fill="white" stroke="#0A0B1E"/>
</svg>
