<svg width="20" height="20" viewBox="0 0 20 20" fill="none" xmlns="http://www.w3.org/2000/svg">
<path d="M10.0002 19.1666C15.0628 19.1666 19.1668 15.0625 19.1668 9.99992C19.1668 4.93731 15.0628 0.833252 10.0002 0.833252C4.93755 0.833252 0.833496 4.93731 0.833496 9.99992C0.833496 15.0625 4.93755 19.1666 10.0002 19.1666Z" fill="white" stroke="#0A0B1E"/>
<path d="M10.0002 16.6667C13.1127 16.6667 15.727 14.5338 16.4611 11.6498C16.6883 10.7578 15.9207 10 15.0002 10H5.00022C4.07974 10 3.31218 10.7578 3.53926 11.6498C4.27345 14.5338 6.88775 16.6667 10.0002 16.6667Z" stroke="#0A0B1E"/>
<path d="M9.98 16.5832C11.1519 16.5832 12.2532 16.2809 13.21 15.7499L11.4838 15.0819C10.5163 14.7074 9.44375 14.7074 8.47617 15.0819L6.75 15.7499C7.70687 16.2809 8.80817 16.5832 9.98 16.5832Z" stroke="#0A0B1E"/>
<path d="M7.49805 5.83325V7.29159V5.83325Z" fill="black"/>
<path d="M7.49805 5.83325V7.29159" stroke="#0A0B1E" stroke-linecap="round"/>
<path d="M12.4971 5.83325V7.29159V5.83325Z" fill="black"/>
<path d="M12.4971 5.83325V7.29159" stroke="#0A0B1E" stroke-linecap="round"/>
</svg>
