<svg width="20" height="20" viewBox="0 0 20 20" fill="none" xmlns="http://www.w3.org/2000/svg">
<path d="M1.15051 5.50797C1.35864 4.20075 2.38843 3.27306 3.70445 3.13082C4.76132 3.01661 6.23712 2.91675 8.16683 2.91675C9.92208 2.91675 11.3017 2.99936 12.3322 3.10026C13.8128 3.24522 14.9217 4.35411 15.0667 5.83468C15.1676 6.86516 15.2502 8.24485 15.2502 10.0001C15.2502 11.7553 15.1676 13.135 15.0667 14.1655C14.9217 15.6461 13.8128 16.7549 12.3322 16.8999C11.3017 17.0008 9.92208 17.0834 8.16683 17.0834C6.23712 17.0834 4.76133 16.9836 3.70445 16.8693C2.38843 16.7271 1.35864 15.7994 1.15051 14.4922C0.981929 13.4333 0.833496 11.9479 0.833496 10.0001C0.833496 8.05221 0.981929 6.56683 1.15051 5.50797Z" fill="white" stroke="#0A0B1E"/>
<path d="M19.1667 9.99992C19.1667 7.59967 18.9968 5.97227 18.8864 5.16766C18.8395 4.82599 18.5455 4.58325 18.2007 4.58325C17.8608 4.58325 17.5319 4.70279 17.2713 4.92092L15.8468 6.11359C15.4686 6.43026 15.25 6.89822 15.25 7.39151V12.6083C15.25 13.1017 15.4686 13.5696 15.8468 13.8863L17.2713 15.0789C17.5319 15.2971 17.8608 15.4166 18.2007 15.4166C18.5455 15.4166 18.8395 15.1738 18.8864 14.8322C18.9968 14.0276 19.1667 12.4002 19.1667 9.99992Z" fill="white" stroke="#0A0B1E"/>
</svg>
